<mxfile host="app.diagrams.net" modified="2024-01-31T13:30:06.729Z" agent="Mozilla/5.0 (Macintosh; Intel Mac OS X 10_15_7) AppleWebKit/537.36 (KHTML, like Gecko) Chrome/120.0.0.0 Safari/537.36" etag="NG7wG_q_0vzV3zD2UUzB" version="23.0.2" type="github">
  <diagram name="Page-1" id="c7558073-3199-34d8-9f00-42111426c3f3">
    <mxGraphModel dx="1134" dy="774" grid="1" gridSize="10" guides="1" tooltips="1" connect="1" arrows="1" fold="1" page="1" pageScale="1" pageWidth="826" pageHeight="1169" background="none" math="0" shadow="0">
      <root>
        <mxCell id="0" />
        <mxCell id="1" parent="0" />
        <mxCell id="62HumBrVCURjdnxOm6BM-210" value="/Login" style="html=1;overflow=block;blockSpacing=1;whiteSpace=wrap;fontSize=13.3;fontColor=#3a414a;spacing=3.8;strokeColor=#3a414a;strokeOpacity=100;fillOpacity=100;rounded=1;absoluteArcSize=1;arcSize=9;fillColor=#67AB9F;strokeWidth=0.8;lucidId=29C-Y0T68Jya;" vertex="1" parent="1">
          <mxGeometry x="383" y="879" width="120" height="60" as="geometry" />
        </mxCell>
        <mxCell id="62HumBrVCURjdnxOm6BM-211" value="Email exists" style="html=1;overflow=block;blockSpacing=1;whiteSpace=wrap;rhombus;fontSize=13.3;fontColor=#3a414a;spacing=3.8;strokeColor=#1071e5;strokeOpacity=100;fillOpacity=100;rounded=1;absoluteArcSize=1;arcSize=9;fillColor=#ffffff;strokeWidth=2.3;lucidId=29C-oESGDhz8;" vertex="1" parent="1">
          <mxGeometry x="585" y="862" width="120" height="90" as="geometry" />
        </mxCell>
        <mxCell id="62HumBrVCURjdnxOm6BM-212" value="201:Logged in&#xa;()HttpCookie" style="html=1;overflow=block;blockSpacing=1;whiteSpace=wrap;shape=parallelogram;perimeter=parallelogramPerimeter;anchorPointDirection=0;fontSize=13.3;fontColor=#3a414a;spacing=9;strokeColor=#3a414a;strokeOpacity=100;fillOpacity=100;rounded=1;absoluteArcSize=1;arcSize=9;fillColor=#6db1ff;strokeWidth=0.8;lucidId=29C-ZFRGiI9G;" vertex="1" parent="1">
          <mxGeometry x="1140" y="862" width="120" height="90" as="geometry" />
        </mxCell>
        <mxCell id="62HumBrVCURjdnxOm6BM-213" value="End" style="html=1;overflow=block;blockSpacing=1;whiteSpace=wrap;fontSize=13.3;fontColor=#3a414a;spacing=3.8;strokeColor=#3a414a;strokeOpacity=100;fillOpacity=100;rounded=1;absoluteArcSize=1;arcSize=9;fillColor=#67AB9F;strokeWidth=0.8;lucidId=29C-p0q4bzq7;" vertex="1" parent="1">
          <mxGeometry x="1380" y="877" width="120" height="60" as="geometry" />
        </mxCell>
        <mxCell id="62HumBrVCURjdnxOm6BM-214" value="" style="html=1;jettySize=18;whiteSpace=wrap;fontSize=13;strokeColor=#3a414a;strokeOpacity=100;strokeWidth=0.8;rounded=1;arcSize=12;edgeStyle=orthogonalEdgeStyle;startArrow=none;endArrow=block;endFill=1;exitX=1.003;exitY=0.5;exitPerimeter=0;entryX=0.009;entryY=0.5;entryPerimeter=0;lucidId=29C-rlwh0YN0;" edge="1" parent="1" source="62HumBrVCURjdnxOm6BM-210" target="62HumBrVCURjdnxOm6BM-211">
          <mxGeometry width="100" height="100" relative="1" as="geometry">
            <Array as="points" />
          </mxGeometry>
        </mxCell>
        <mxCell id="62HumBrVCURjdnxOm6BM-215" value="" style="html=1;jettySize=18;whiteSpace=wrap;fontSize=13.3;fontColor=#333333;fontStyle=1;strokeColor=#3a414a;strokeOpacity=100;strokeWidth=0.8;rounded=1;arcSize=12;edgeStyle=orthogonalEdgeStyle;startArrow=none;endArrow=block;endFill=1;exitX=0.991;exitY=0.5;exitPerimeter=0;entryX=0.009;entryY=0.5;entryPerimeter=0;lucidId=29C-Whvy0IPO;" edge="1" parent="1" source="62HumBrVCURjdnxOm6BM-211" target="62HumBrVCURjdnxOm6BM-220">
          <mxGeometry width="100" height="100" relative="1" as="geometry">
            <Array as="points" />
          </mxGeometry>
        </mxCell>
        <mxCell id="62HumBrVCURjdnxOm6BM-216" value="Yes" style="text;html=1;resizable=0;labelBackgroundColor=default;align=center;verticalAlign=middle;fontStyle=1;fontColor=#333333;fontSize=13.3;" vertex="1" parent="62HumBrVCURjdnxOm6BM-215">
          <mxGeometry relative="1" as="geometry" />
        </mxCell>
        <mxCell id="62HumBrVCURjdnxOm6BM-217" value="" style="html=1;jettySize=18;whiteSpace=wrap;fontSize=13.3;fontColor=#333333;fontStyle=1;strokeColor=#3a414a;strokeOpacity=100;strokeWidth=0.8;rounded=1;arcSize=12;edgeStyle=orthogonalEdgeStyle;startArrow=none;endArrow=block;endFill=1;exitX=0.5;exitY=0.004;exitPerimeter=0;entryX=0.5;entryY=1.012;entryPerimeter=0;lucidId=29C-Mr47LvP2;" edge="1" parent="1" source="62HumBrVCURjdnxOm6BM-211" target="62HumBrVCURjdnxOm6BM-223">
          <mxGeometry width="100" height="100" relative="1" as="geometry">
            <Array as="points" />
          </mxGeometry>
        </mxCell>
        <mxCell id="62HumBrVCURjdnxOm6BM-218" value="No" style="text;html=1;resizable=0;labelBackgroundColor=default;align=center;verticalAlign=middle;fontStyle=1;fontColor=#333333;fontSize=13.3;" vertex="1" parent="62HumBrVCURjdnxOm6BM-217">
          <mxGeometry x="-0.15564389259187872" relative="1" as="geometry" />
        </mxCell>
        <mxCell id="62HumBrVCURjdnxOm6BM-219" value="" style="html=1;jettySize=18;whiteSpace=wrap;fontSize=13;strokeColor=#3a414a;strokeOpacity=100;strokeWidth=0.8;rounded=1;arcSize=12;edgeStyle=orthogonalEdgeStyle;startArrow=none;endArrow=block;endFill=1;exitX=0.903;exitY=0.5;exitPerimeter=0;entryX=-0.003;entryY=0.5;entryPerimeter=0;lucidId=29C-q3EVUtG_;" edge="1" parent="1" source="62HumBrVCURjdnxOm6BM-212" target="62HumBrVCURjdnxOm6BM-213">
          <mxGeometry width="100" height="100" relative="1" as="geometry">
            <Array as="points" />
          </mxGeometry>
        </mxCell>
        <mxCell id="62HumBrVCURjdnxOm6BM-220" value="Password matches" style="html=1;overflow=block;blockSpacing=1;whiteSpace=wrap;rhombus;fontSize=13.3;fontColor=#3a414a;spacing=3.8;strokeColor=#1071e5;strokeOpacity=100;fillOpacity=100;rounded=1;absoluteArcSize=1;arcSize=9;fillColor=#ffffff;strokeWidth=2.3;lucidId=p_C-7IIEqgi_;" vertex="1" parent="1">
          <mxGeometry x="787" y="862" width="120" height="90" as="geometry" />
        </mxCell>
        <mxCell id="62HumBrVCURjdnxOm6BM-221" value="" style="html=1;jettySize=18;whiteSpace=wrap;fontSize=13;strokeColor=#3a414a;strokeOpacity=100;strokeWidth=0.8;rounded=1;arcSize=12;edgeStyle=orthogonalEdgeStyle;startArrow=none;endArrow=block;endFill=1;exitX=0.5;exitY=0.004;exitPerimeter=0;entryX=0.5;entryY=1.012;entryPerimeter=0;lucidId=nbD-ZyhEIkPe;" edge="1" parent="1" source="62HumBrVCURjdnxOm6BM-220" target="62HumBrVCURjdnxOm6BM-222">
          <mxGeometry width="100" height="100" relative="1" as="geometry">
            <Array as="points" />
          </mxGeometry>
        </mxCell>
        <mxCell id="62HumBrVCURjdnxOm6BM-222" value="401:Invalid password" style="html=1;overflow=block;blockSpacing=1;whiteSpace=wrap;shape=parallelogram;perimeter=parallelogramPerimeter;anchorPointDirection=0;fontSize=13.3;fontColor=#3a414a;spacing=3.8;strokeColor=#1071e5;strokeOpacity=100;fillOpacity=100;rounded=1;absoluteArcSize=1;arcSize=9;fillColor=#FFCCE6;strokeWidth=2.3;lucidId=mbD-WJXODha4;" vertex="1" parent="1">
          <mxGeometry x="787" y="712" width="120" height="90" as="geometry" />
        </mxCell>
        <mxCell id="62HumBrVCURjdnxOm6BM-223" value="401:No user found" style="html=1;overflow=block;blockSpacing=1;whiteSpace=wrap;shape=parallelogram;perimeter=parallelogramPerimeter;anchorPointDirection=0;fontSize=13.3;fontColor=#3a414a;spacing=3.8;strokeColor=#1071e5;strokeOpacity=100;fillOpacity=100;rounded=1;absoluteArcSize=1;arcSize=9;fillColor=#FFCCE6;strokeWidth=2.3;lucidId=PeD-VPZ_ZLq2;" vertex="1" parent="1">
          <mxGeometry x="585" y="705" width="120" height="90" as="geometry" />
        </mxCell>
        <mxCell id="62HumBrVCURjdnxOm6BM-224" value="" style="html=1;jettySize=18;whiteSpace=wrap;fontSize=13.3;fontColor=#333333;fontStyle=1;strokeColor=#3a414a;strokeOpacity=100;strokeWidth=0.8;rounded=1;arcSize=12;edgeStyle=orthogonalEdgeStyle;startArrow=none;endArrow=block;endFill=1;entryX=0.009;entryY=0.5;entryPerimeter=0;lucidId=LfD-Xay5Ag-Q;" edge="1" parent="1" target="62HumBrVCURjdnxOm6BM-226">
          <mxGeometry width="100" height="100" relative="1" as="geometry">
            <Array as="points" />
            <mxPoint x="907" y="907" as="sourcePoint" />
          </mxGeometry>
        </mxCell>
        <mxCell id="62HumBrVCURjdnxOm6BM-225" value="Yes" style="text;html=1;resizable=0;labelBackgroundColor=default;align=center;verticalAlign=middle;fontStyle=1;fontColor=#333333;fontSize=13.3;" vertex="1" parent="62HumBrVCURjdnxOm6BM-224">
          <mxGeometry relative="1" as="geometry" />
        </mxCell>
        <mxCell id="62HumBrVCURjdnxOm6BM-226" value="Password matches" style="html=1;overflow=block;blockSpacing=1;whiteSpace=wrap;rhombus;fontSize=13.3;fontColor=#3a414a;spacing=3.8;strokeColor=#1071e5;strokeOpacity=100;fillOpacity=100;rounded=1;absoluteArcSize=1;arcSize=9;fillColor=#ffffff;strokeWidth=2.3;lucidId=LfD-Kc9T6Nfg;" vertex="1" parent="1">
          <mxGeometry x="990" y="862" width="120" height="90" as="geometry" />
        </mxCell>
        <mxCell id="62HumBrVCURjdnxOm6BM-227" value="" style="html=1;jettySize=18;whiteSpace=wrap;fontSize=13;strokeColor=#3a414a;strokeOpacity=100;strokeWidth=0.8;rounded=1;arcSize=12;edgeStyle=orthogonalEdgeStyle;startArrow=none;endArrow=block;endFill=1;exitX=0.991;exitY=0.5;exitPerimeter=0;entryX=0.097;entryY=0.5;entryPerimeter=0;lucidId=ZfD-6.MrFPfc;" edge="1" parent="1" source="62HumBrVCURjdnxOm6BM-226" target="62HumBrVCURjdnxOm6BM-212">
          <mxGeometry width="100" height="100" relative="1" as="geometry">
            <Array as="points" />
          </mxGeometry>
        </mxCell>
        <mxCell id="62HumBrVCURjdnxOm6BM-228" value="" style="html=1;jettySize=18;whiteSpace=wrap;fontSize=13.3;fontColor=#333333;fontStyle=1;align=center;strokeColor=#3a414a;strokeOpacity=100;strokeWidth=0.8;rounded=1;arcSize=12;edgeStyle=orthogonalEdgeStyle;startArrow=none;endArrow=block;endFill=1;exitX=0.5;exitY=0.004;exitPerimeter=0;entryX=0.5;entryY=1.012;entryPerimeter=0;lucidId=fgD-ajWM05fE;" edge="1" parent="1" source="62HumBrVCURjdnxOm6BM-220" target="62HumBrVCURjdnxOm6BM-222">
          <mxGeometry width="100" height="100" relative="1" as="geometry">
            <Array as="points" />
          </mxGeometry>
        </mxCell>
        <mxCell id="62HumBrVCURjdnxOm6BM-229" value="No" style="text;html=1;resizable=0;labelBackgroundColor=default;align=center;verticalAlign=middle;fontStyle=1;fontColor=#333333;fontSize=13.3;" vertex="1" parent="62HumBrVCURjdnxOm6BM-228">
          <mxGeometry relative="1" as="geometry" />
        </mxCell>
        <mxCell id="62HumBrVCURjdnxOm6BM-230" value="" style="html=1;jettySize=18;whiteSpace=wrap;fontSize=13.3;fontColor=#333333;fontStyle=1;align=center;strokeColor=#3a414a;strokeOpacity=100;strokeWidth=0.8;rounded=1;arcSize=12;edgeStyle=orthogonalEdgeStyle;startArrow=none;endArrow=block;endFill=1;exitX=0.5;exitY=0.004;exitPerimeter=0;entryX=0.5;entryY=1.012;entryPerimeter=0;lucidId=ugD-94D_F00T;" edge="1" parent="1" source="62HumBrVCURjdnxOm6BM-226" target="62HumBrVCURjdnxOm6BM-232">
          <mxGeometry width="100" height="100" relative="1" as="geometry">
            <Array as="points" />
          </mxGeometry>
        </mxCell>
        <mxCell id="62HumBrVCURjdnxOm6BM-231" value="No" style="text;html=1;resizable=0;labelBackgroundColor=default;align=center;verticalAlign=middle;fontStyle=1;fontColor=#333333;fontSize=13.3;" vertex="1" parent="62HumBrVCURjdnxOm6BM-230">
          <mxGeometry relative="1" as="geometry" />
        </mxCell>
        <mxCell id="62HumBrVCURjdnxOm6BM-232" value="401:User is not verfied" style="html=1;overflow=block;blockSpacing=1;whiteSpace=wrap;shape=parallelogram;perimeter=parallelogramPerimeter;anchorPointDirection=0;fontSize=13.3;fontColor=#3a414a;spacing=3.8;strokeColor=#1071e5;strokeOpacity=100;fillOpacity=100;rounded=1;absoluteArcSize=1;arcSize=9;fillColor=#FFCCE6;strokeWidth=2.3;lucidId=wgD-iBjF-E~x;" vertex="1" parent="1">
          <mxGeometry x="989" y="705" width="120" height="90" as="geometry" />
        </mxCell>
        <mxCell id="62HumBrVCURjdnxOm6BM-233" value="/Signup&#xa;*email&#xa;*password&#xa;*firstname&#xa;*lastname&#xa;*farm_location" style="html=1;overflow=block;blockSpacing=1;whiteSpace=wrap;fontSize=13.3;fontColor=#3a414a;spacing=3.8;strokeColor=#3a414a;strokeOpacity=100;fillOpacity=100;rounded=1;absoluteArcSize=1;arcSize=9;fillColor=#67AB9F;strokeWidth=0.8;lucidId=ThD-msHrC5PV;" vertex="1" parent="1">
          <mxGeometry x="345" y="1219" width="178" height="146" as="geometry" />
        </mxCell>
        <mxCell id="62HumBrVCURjdnxOm6BM-234" value="Email exists" style="html=1;overflow=block;blockSpacing=1;whiteSpace=wrap;rhombus;fontSize=13.3;fontColor=#3a414a;spacing=3.8;strokeColor=#1071e5;strokeOpacity=100;fillOpacity=100;rounded=1;absoluteArcSize=1;arcSize=9;fillColor=#ffffff;strokeWidth=2.3;lucidId=ThD-nvDqKR3D;" vertex="1" parent="1">
          <mxGeometry x="579" y="1247" width="120" height="90" as="geometry" />
        </mxCell>
        <mxCell id="62HumBrVCURjdnxOm6BM-235" value="" style="html=1;jettySize=18;whiteSpace=wrap;fontSize=13;strokeColor=#3a414a;strokeOpacity=100;strokeWidth=0.8;rounded=1;arcSize=12;edgeStyle=orthogonalEdgeStyle;startArrow=none;endArrow=block;endFill=1;exitX=1.002;exitY=0.5;exitPerimeter=0;entryX=0.009;entryY=0.5;entryPerimeter=0;lucidId=ThD-l9cR6ZK3;" edge="1" parent="1" source="62HumBrVCURjdnxOm6BM-233" target="62HumBrVCURjdnxOm6BM-234">
          <mxGeometry width="100" height="100" relative="1" as="geometry">
            <Array as="points" />
          </mxGeometry>
        </mxCell>
        <mxCell id="62HumBrVCURjdnxOm6BM-236" value="" style="html=1;jettySize=18;whiteSpace=wrap;fontSize=13.3;fontColor=#333333;fontStyle=1;strokeColor=#3a414a;strokeOpacity=100;strokeWidth=0.8;rounded=1;arcSize=12;edgeStyle=orthogonalEdgeStyle;startArrow=none;endArrow=block;endFill=1;exitX=0.991;exitY=0.5;exitPerimeter=0;entryX=0.009;entryY=0.5;entryPerimeter=0;lucidId=ThD-q9ZssvZ3;" edge="1" parent="1" source="62HumBrVCURjdnxOm6BM-234" target="62HumBrVCURjdnxOm6BM-240">
          <mxGeometry width="100" height="100" relative="1" as="geometry">
            <Array as="points" />
          </mxGeometry>
        </mxCell>
        <mxCell id="62HumBrVCURjdnxOm6BM-237" value="No" style="text;html=1;resizable=0;labelBackgroundColor=default;align=center;verticalAlign=middle;fontStyle=1;fontColor=#333333;fontSize=13.3;" vertex="1" parent="62HumBrVCURjdnxOm6BM-236">
          <mxGeometry relative="1" as="geometry" />
        </mxCell>
        <mxCell id="62HumBrVCURjdnxOm6BM-238" value="" style="html=1;jettySize=18;whiteSpace=wrap;fontSize=13.3;fontColor=#333333;fontStyle=1;strokeColor=#3a414a;strokeOpacity=100;strokeWidth=0.8;rounded=1;arcSize=12;edgeStyle=orthogonalEdgeStyle;startArrow=none;endArrow=block;endFill=1;exitX=0.5;exitY=0.004;exitPerimeter=0;entryX=0.5;entryY=1.012;entryPerimeter=0;lucidId=ThD-I19RZEaH;" edge="1" parent="1" source="62HumBrVCURjdnxOm6BM-234" target="62HumBrVCURjdnxOm6BM-243">
          <mxGeometry width="100" height="100" relative="1" as="geometry">
            <Array as="points" />
          </mxGeometry>
        </mxCell>
        <mxCell id="62HumBrVCURjdnxOm6BM-239" value="Yes" style="text;html=1;resizable=0;labelBackgroundColor=default;align=center;verticalAlign=middle;fontStyle=1;fontColor=#333333;fontSize=13.3;" vertex="1" parent="62HumBrVCURjdnxOm6BM-238">
          <mxGeometry x="-0.15564389259187872" relative="1" as="geometry" />
        </mxCell>
        <mxCell id="62HumBrVCURjdnxOm6BM-240" value="EmailIsValid" style="html=1;overflow=block;blockSpacing=1;whiteSpace=wrap;rhombus;fontSize=13.3;fontColor=#3a414a;spacing=3.8;strokeColor=#1071e5;strokeOpacity=100;fillOpacity=100;rounded=1;absoluteArcSize=1;arcSize=9;fillColor=#ffffff;strokeWidth=2.3;lucidId=ThD-5_bWH5HX;" vertex="1" parent="1">
          <mxGeometry x="781" y="1247" width="120" height="90" as="geometry" />
        </mxCell>
        <mxCell id="62HumBrVCURjdnxOm6BM-241" value="" style="html=1;jettySize=18;whiteSpace=wrap;fontSize=13;strokeColor=#3a414a;strokeOpacity=100;strokeWidth=0.8;rounded=1;arcSize=12;edgeStyle=orthogonalEdgeStyle;startArrow=none;endArrow=block;endFill=1;exitX=0.5;exitY=0.004;exitPerimeter=0;entryX=0.5;entryY=1.012;entryPerimeter=0;lucidId=ThD-HYlzz02X;" edge="1" parent="1" source="62HumBrVCURjdnxOm6BM-240" target="62HumBrVCURjdnxOm6BM-242">
          <mxGeometry width="100" height="100" relative="1" as="geometry">
            <Array as="points" />
          </mxGeometry>
        </mxCell>
        <mxCell id="62HumBrVCURjdnxOm6BM-242" value="401:Invalid Email" style="html=1;overflow=block;blockSpacing=1;whiteSpace=wrap;shape=parallelogram;perimeter=parallelogramPerimeter;anchorPointDirection=0;fontSize=13.3;fontColor=#3a414a;spacing=3.8;strokeColor=#1071e5;strokeOpacity=100;fillOpacity=100;rounded=1;absoluteArcSize=1;arcSize=9;fillColor=#FFCCE6;strokeWidth=2.3;lucidId=ThD-_YmIvzGc;" vertex="1" parent="1">
          <mxGeometry x="781" y="1097" width="120" height="90" as="geometry" />
        </mxCell>
        <mxCell id="62HumBrVCURjdnxOm6BM-243" value="401:Email taken" style="html=1;overflow=block;blockSpacing=1;whiteSpace=wrap;shape=parallelogram;perimeter=parallelogramPerimeter;anchorPointDirection=0;fontSize=13.3;fontColor=#3a414a;spacing=3.8;strokeColor=#1071e5;strokeOpacity=100;fillOpacity=100;rounded=1;absoluteArcSize=1;arcSize=9;fillColor=#FFCCE6;strokeWidth=2.3;lucidId=ThD-IimVVPlu;" vertex="1" parent="1">
          <mxGeometry x="579" y="1089" width="120" height="90" as="geometry" />
        </mxCell>
        <mxCell id="62HumBrVCURjdnxOm6BM-244" value="" style="html=1;jettySize=18;whiteSpace=wrap;fontSize=13.3;fontColor=#333333;fontStyle=1;strokeColor=#3a414a;strokeOpacity=100;strokeWidth=0.8;rounded=1;arcSize=12;edgeStyle=orthogonalEdgeStyle;startArrow=none;endArrow=block;endFill=1;entryX=0.009;entryY=0.5;entryPerimeter=0;lucidId=ThD-vpn3.ZYP;" edge="1" parent="1" target="62HumBrVCURjdnxOm6BM-246">
          <mxGeometry width="100" height="100" relative="1" as="geometry">
            <Array as="points" />
            <mxPoint x="901" y="1292" as="sourcePoint" />
          </mxGeometry>
        </mxCell>
        <mxCell id="62HumBrVCURjdnxOm6BM-245" value="Yes" style="text;html=1;resizable=0;labelBackgroundColor=default;align=center;verticalAlign=middle;fontStyle=1;fontColor=#333333;fontSize=13.3;" vertex="1" parent="62HumBrVCURjdnxOm6BM-244">
          <mxGeometry relative="1" as="geometry" />
        </mxCell>
        <mxCell id="62HumBrVCURjdnxOm6BM-246" value="PasswordIsStrong" style="html=1;overflow=block;blockSpacing=1;whiteSpace=wrap;rhombus;fontSize=13.3;fontColor=#3a414a;spacing=3.8;strokeColor=#1071e5;strokeOpacity=100;fillOpacity=100;rounded=1;absoluteArcSize=1;arcSize=9;fillColor=#ffffff;strokeWidth=2.3;lucidId=ThD-HPPIBmXh;" vertex="1" parent="1">
          <mxGeometry x="984" y="1247" width="120" height="90" as="geometry" />
        </mxCell>
        <mxCell id="62HumBrVCURjdnxOm6BM-247" value="" style="html=1;jettySize=18;whiteSpace=wrap;fontSize=13.3;fontColor=#333333;fontStyle=1;align=center;strokeColor=#3a414a;strokeOpacity=100;strokeWidth=0.8;rounded=1;arcSize=12;edgeStyle=orthogonalEdgeStyle;startArrow=none;endArrow=block;endFill=1;exitX=0.5;exitY=0.004;exitPerimeter=0;entryX=0.5;entryY=1.012;entryPerimeter=0;lucidId=ThD-p2_1oI.5;" edge="1" parent="1" source="62HumBrVCURjdnxOm6BM-240" target="62HumBrVCURjdnxOm6BM-242">
          <mxGeometry width="100" height="100" relative="1" as="geometry">
            <Array as="points" />
          </mxGeometry>
        </mxCell>
        <mxCell id="62HumBrVCURjdnxOm6BM-248" value="No" style="text;html=1;resizable=0;labelBackgroundColor=default;align=center;verticalAlign=middle;fontStyle=1;fontColor=#333333;fontSize=13.3;" vertex="1" parent="62HumBrVCURjdnxOm6BM-247">
          <mxGeometry relative="1" as="geometry" />
        </mxCell>
        <mxCell id="62HumBrVCURjdnxOm6BM-249" value="" style="html=1;jettySize=18;whiteSpace=wrap;fontSize=13.3;fontColor=#333333;fontStyle=1;align=center;strokeColor=#3a414a;strokeOpacity=100;strokeWidth=0.8;rounded=1;arcSize=12;edgeStyle=orthogonalEdgeStyle;startArrow=none;endArrow=block;endFill=1;exitX=0.5;exitY=0.004;exitPerimeter=0;entryX=0.5;entryY=1.012;entryPerimeter=0;lucidId=ThD-bxyU5PMf;" edge="1" parent="1" source="62HumBrVCURjdnxOm6BM-246" target="62HumBrVCURjdnxOm6BM-251">
          <mxGeometry width="100" height="100" relative="1" as="geometry">
            <Array as="points" />
          </mxGeometry>
        </mxCell>
        <mxCell id="62HumBrVCURjdnxOm6BM-250" value="No" style="text;html=1;resizable=0;labelBackgroundColor=default;align=center;verticalAlign=middle;fontStyle=1;fontColor=#333333;fontSize=13.3;" vertex="1" parent="62HumBrVCURjdnxOm6BM-249">
          <mxGeometry relative="1" as="geometry" />
        </mxCell>
        <mxCell id="62HumBrVCURjdnxOm6BM-251" value="401:Password too weak" style="html=1;overflow=block;blockSpacing=1;whiteSpace=wrap;shape=parallelogram;perimeter=parallelogramPerimeter;anchorPointDirection=0;fontSize=13.3;fontColor=#3a414a;spacing=3.8;strokeColor=#1071e5;strokeOpacity=100;fillOpacity=100;rounded=1;absoluteArcSize=1;arcSize=9;fillColor=#FFCCE6;strokeWidth=2.3;lucidId=ThD-a4Rsdz5X;" vertex="1" parent="1">
          <mxGeometry x="983" y="1089" width="120" height="90" as="geometry" />
        </mxCell>
        <mxCell id="62HumBrVCURjdnxOm6BM-252" value="Firstname and lastname is greater than 3" style="html=1;overflow=block;blockSpacing=1;whiteSpace=wrap;rhombus;fontSize=13.3;fontColor=#3a414a;spacing=3.8;strokeColor=#1071e5;strokeOpacity=100;fillOpacity=100;rounded=1;absoluteArcSize=1;arcSize=9;fillColor=#ffffff;strokeWidth=2.3;lucidId=mkD-M_D.9qMC;" vertex="1" parent="1">
          <mxGeometry x="1155" y="1238" width="150" height="109" as="geometry" />
        </mxCell>
        <mxCell id="62HumBrVCURjdnxOm6BM-253" value="" style="html=1;jettySize=18;whiteSpace=wrap;fontSize=13.3;fontColor=#333333;fontStyle=1;align=center;strokeColor=#3a414a;strokeOpacity=100;strokeWidth=0.8;rounded=1;arcSize=12;edgeStyle=orthogonalEdgeStyle;startArrow=none;endArrow=block;endFill=1;exitX=0.5;exitY=0.003;exitPerimeter=0;entryX=0.5;entryY=1.012;entryPerimeter=0;lucidId=mkD-bn9vjI7e;" edge="1" parent="1" source="62HumBrVCURjdnxOm6BM-252" target="62HumBrVCURjdnxOm6BM-255">
          <mxGeometry width="100" height="100" relative="1" as="geometry">
            <Array as="points" />
          </mxGeometry>
        </mxCell>
        <mxCell id="62HumBrVCURjdnxOm6BM-254" value="No" style="text;html=1;resizable=0;labelBackgroundColor=default;align=center;verticalAlign=middle;fontStyle=1;fontColor=#333333;fontSize=13.3;" vertex="1" parent="62HumBrVCURjdnxOm6BM-253">
          <mxGeometry relative="1" as="geometry" />
        </mxCell>
        <mxCell id="62HumBrVCURjdnxOm6BM-255" value="401:Firstname or lastname is too weak" style="html=1;overflow=block;blockSpacing=1;whiteSpace=wrap;shape=parallelogram;perimeter=parallelogramPerimeter;anchorPointDirection=0;fontSize=13.3;fontColor=#3a414a;spacing=3.8;strokeColor=#1071e5;strokeOpacity=100;fillOpacity=100;rounded=1;absoluteArcSize=1;arcSize=9;fillColor=#FFCCE6;strokeWidth=2.3;lucidId=mkD-_qlNn2yM;" vertex="1" parent="1">
          <mxGeometry x="1155" y="1089" width="120" height="90" as="geometry" />
        </mxCell>
        <mxCell id="62HumBrVCURjdnxOm6BM-256" value="Location is equal to the supported locations" style="html=1;overflow=block;blockSpacing=1;whiteSpace=wrap;rhombus;fontSize=13.3;fontColor=#3a414a;spacing=3.8;strokeColor=#1071e5;strokeOpacity=100;fillOpacity=100;rounded=1;absoluteArcSize=1;arcSize=9;fillColor=#ffffff;strokeWidth=2.3;lucidId=WlD-x6b0ivu4;" vertex="1" parent="1">
          <mxGeometry x="1356" y="1238" width="150" height="109" as="geometry" />
        </mxCell>
        <mxCell id="62HumBrVCURjdnxOm6BM-257" value="" style="html=1;jettySize=18;whiteSpace=wrap;fontSize=13.3;fontColor=#333333;fontStyle=1;align=center;strokeColor=#3a414a;strokeOpacity=100;strokeWidth=0.8;rounded=1;arcSize=12;edgeStyle=orthogonalEdgeStyle;startArrow=none;endArrow=block;endFill=1;exitX=0.5;exitY=0.003;exitPerimeter=0;entryX=0.5;entryY=1.012;entryPerimeter=0;lucidId=WlD-pn3rZpLL;" edge="1" parent="1" source="62HumBrVCURjdnxOm6BM-256" target="62HumBrVCURjdnxOm6BM-259">
          <mxGeometry width="100" height="100" relative="1" as="geometry">
            <Array as="points" />
          </mxGeometry>
        </mxCell>
        <mxCell id="62HumBrVCURjdnxOm6BM-258" value="No" style="text;html=1;resizable=0;labelBackgroundColor=default;align=center;verticalAlign=middle;fontStyle=1;fontColor=#333333;fontSize=13.3;" vertex="1" parent="62HumBrVCURjdnxOm6BM-257">
          <mxGeometry relative="1" as="geometry" />
        </mxCell>
        <mxCell id="62HumBrVCURjdnxOm6BM-259" value="401: Your location is not currently supported" style="html=1;overflow=block;blockSpacing=1;whiteSpace=wrap;shape=parallelogram;perimeter=parallelogramPerimeter;anchorPointDirection=0;fontSize=13.3;fontColor=#3a414a;spacing=3.8;strokeColor=#1071e5;strokeOpacity=100;fillOpacity=100;rounded=1;absoluteArcSize=1;arcSize=9;fillColor=#FFCCE6;strokeWidth=2.3;lucidId=WlD-W20Hxn9_;" vertex="1" parent="1">
          <mxGeometry x="1380" y="1089" width="120" height="90" as="geometry" />
        </mxCell>
        <mxCell id="62HumBrVCURjdnxOm6BM-260" value="" style="html=1;jettySize=18;whiteSpace=wrap;fontSize=13.3;fontColor=#333333;fontStyle=1;align=center;strokeColor=#3a414a;strokeOpacity=100;strokeWidth=0.8;rounded=1;arcSize=12;edgeStyle=orthogonalEdgeStyle;startArrow=none;endArrow=block;endFill=1;exitX=0.991;exitY=0.5;exitPerimeter=0;entryX=0.008;entryY=0.5;entryPerimeter=0;lucidId=5lD-wXkpy7O.;" edge="1" parent="1" source="62HumBrVCURjdnxOm6BM-246" target="62HumBrVCURjdnxOm6BM-252">
          <mxGeometry width="100" height="100" relative="1" as="geometry">
            <Array as="points" />
          </mxGeometry>
        </mxCell>
        <mxCell id="62HumBrVCURjdnxOm6BM-261" value="Yes" style="text;html=1;resizable=0;labelBackgroundColor=default;align=center;verticalAlign=middle;fontStyle=1;fontColor=#333333;fontSize=13.3;" vertex="1" parent="62HumBrVCURjdnxOm6BM-260">
          <mxGeometry relative="1" as="geometry" />
        </mxCell>
        <mxCell id="62HumBrVCURjdnxOm6BM-262" value="" style="html=1;jettySize=18;whiteSpace=wrap;fontSize=13.3;fontColor=#333333;fontStyle=1;align=center;strokeColor=#3a414a;strokeOpacity=100;strokeWidth=0.8;rounded=1;arcSize=12;edgeStyle=orthogonalEdgeStyle;startArrow=none;endArrow=block;endFill=1;exitX=0.992;exitY=0.5;exitPerimeter=0;entryX=0.008;entryY=0.5;entryPerimeter=0;lucidId=fmD-oQvoLiTi;" edge="1" parent="1" source="62HumBrVCURjdnxOm6BM-252" target="62HumBrVCURjdnxOm6BM-256">
          <mxGeometry width="100" height="100" relative="1" as="geometry">
            <Array as="points" />
          </mxGeometry>
        </mxCell>
        <mxCell id="62HumBrVCURjdnxOm6BM-263" value="Yes" style="text;html=1;resizable=0;labelBackgroundColor=default;align=center;verticalAlign=middle;fontStyle=1;fontColor=#333333;fontSize=13.3;" vertex="1" parent="62HumBrVCURjdnxOm6BM-262">
          <mxGeometry relative="1" as="geometry" />
        </mxCell>
        <mxCell id="62HumBrVCURjdnxOm6BM-264" value="" style="html=1;jettySize=18;whiteSpace=wrap;fontSize=13;strokeColor=#3a414a;strokeOpacity=100;strokeWidth=0.8;rounded=1;arcSize=12;edgeStyle=orthogonalEdgeStyle;startArrow=none;endArrow=block;endFill=1;exitX=0.992;exitY=0.5;exitPerimeter=0;entryX=0.089;entryY=0.5;entryPerimeter=0;lucidId=DnD-TMCN.EOl;" edge="1" parent="1" source="62HumBrVCURjdnxOm6BM-256" target="62HumBrVCURjdnxOm6BM-265">
          <mxGeometry width="100" height="100" relative="1" as="geometry">
            <Array as="points" />
          </mxGeometry>
        </mxCell>
        <mxCell id="62HumBrVCURjdnxOm6BM-265" value="()createUser&#xa;()sendVerification&#xa;201:Account created&#xa;" style="html=1;overflow=block;blockSpacing=1;whiteSpace=wrap;shape=parallelogram;perimeter=parallelogramPerimeter;anchorPointDirection=0;fontSize=13.3;fontColor=#3a414a;spacing=3.8;strokeColor=#1071e5;strokeOpacity=100;fillOpacity=100;rounded=1;absoluteArcSize=1;arcSize=9;fillColor=#7EA6E0;strokeWidth=2.3;lucidId=DnD-C7UqugdJ;" vertex="1" parent="1">
          <mxGeometry x="1566" y="1238" width="150" height="109" as="geometry" />
        </mxCell>
        <mxCell id="62HumBrVCURjdnxOm6BM-266" value="" style="html=1;jettySize=18;whiteSpace=wrap;fontSize=13.3;fontColor=#333333;fontStyle=1;align=center;strokeColor=#3a414a;strokeOpacity=100;strokeWidth=0.8;rounded=1;arcSize=12;edgeStyle=orthogonalEdgeStyle;startArrow=none;endArrow=block;endFill=1;exitX=0.992;exitY=0.5;exitPerimeter=0;entryX=0.089;entryY=0.5;entryPerimeter=0;lucidId=RnD-hno0RCDE;" edge="1" parent="1" source="62HumBrVCURjdnxOm6BM-256" target="62HumBrVCURjdnxOm6BM-265">
          <mxGeometry width="100" height="100" relative="1" as="geometry">
            <Array as="points" />
          </mxGeometry>
        </mxCell>
        <mxCell id="62HumBrVCURjdnxOm6BM-267" value="Yes" style="text;html=1;resizable=0;labelBackgroundColor=default;align=center;verticalAlign=middle;fontStyle=1;fontColor=#333333;fontSize=13.3;" vertex="1" parent="62HumBrVCURjdnxOm6BM-266">
          <mxGeometry relative="1" as="geometry" />
        </mxCell>
        <mxCell id="62HumBrVCURjdnxOm6BM-268" value="/verifyEmail&#xa;*email&#xa;*token" style="html=1;overflow=block;blockSpacing=1;whiteSpace=wrap;fontSize=13.3;fontColor=#3a414a;spacing=3.8;strokeColor=#3a414a;strokeOpacity=100;fillOpacity=100;rounded=1;absoluteArcSize=1;arcSize=9;fillColor=#67AB9F;strokeWidth=0.8;lucidId=DrD-D4KeFBbC;" vertex="1" parent="1">
          <mxGeometry x="377" y="1644" width="120" height="60" as="geometry" />
        </mxCell>
        <mxCell id="62HumBrVCURjdnxOm6BM-269" value="Email exists" style="html=1;overflow=block;blockSpacing=1;whiteSpace=wrap;rhombus;fontSize=13.3;fontColor=#3a414a;spacing=3.8;strokeColor=#1071e5;strokeOpacity=100;fillOpacity=100;rounded=1;absoluteArcSize=1;arcSize=9;fillColor=#ffffff;strokeWidth=2.3;lucidId=DrD-Ha23VHyx;" vertex="1" parent="1">
          <mxGeometry x="579" y="1627" width="120" height="90" as="geometry" />
        </mxCell>
        <mxCell id="62HumBrVCURjdnxOm6BM-270" value="" style="html=1;jettySize=18;whiteSpace=wrap;fontSize=13;strokeColor=#3a414a;strokeOpacity=100;strokeWidth=0.8;rounded=1;arcSize=12;edgeStyle=orthogonalEdgeStyle;startArrow=none;endArrow=block;endFill=1;exitX=1.003;exitY=0.5;exitPerimeter=0;entryX=0.009;entryY=0.5;entryPerimeter=0;lucidId=DrD-r2CzdIG8;" edge="1" parent="1" source="62HumBrVCURjdnxOm6BM-268" target="62HumBrVCURjdnxOm6BM-269">
          <mxGeometry width="100" height="100" relative="1" as="geometry">
            <Array as="points" />
          </mxGeometry>
        </mxCell>
        <mxCell id="62HumBrVCURjdnxOm6BM-271" value="" style="html=1;jettySize=18;whiteSpace=wrap;fontSize=13.3;fontColor=#333333;fontStyle=1;strokeColor=#3a414a;strokeOpacity=100;strokeWidth=0.8;rounded=1;arcSize=12;edgeStyle=orthogonalEdgeStyle;startArrow=none;endArrow=block;endFill=1;exitX=0.5;exitY=0.004;exitPerimeter=0;entryX=0.5;entryY=1.012;entryPerimeter=0;lucidId=DrD-eDjje7M5;" edge="1" parent="1" source="62HumBrVCURjdnxOm6BM-269" target="62HumBrVCURjdnxOm6BM-273">
          <mxGeometry width="100" height="100" relative="1" as="geometry">
            <Array as="points" />
          </mxGeometry>
        </mxCell>
        <mxCell id="62HumBrVCURjdnxOm6BM-272" value="No" style="text;html=1;resizable=0;labelBackgroundColor=default;align=center;verticalAlign=middle;fontStyle=1;fontColor=#333333;fontSize=13.3;" vertex="1" parent="62HumBrVCURjdnxOm6BM-271">
          <mxGeometry x="-0.15564389259187872" relative="1" as="geometry" />
        </mxCell>
        <mxCell id="62HumBrVCURjdnxOm6BM-273" value=" 401:User does not exists" style="html=1;overflow=block;blockSpacing=1;whiteSpace=wrap;shape=parallelogram;perimeter=parallelogramPerimeter;anchorPointDirection=0;fontSize=13.3;fontColor=#3a414a;spacing=3.8;strokeColor=#1071e5;strokeOpacity=100;fillOpacity=100;rounded=1;absoluteArcSize=1;arcSize=9;fillColor=#FFCCE6;strokeWidth=2.3;lucidId=DrD-UljO6VfJ;" vertex="1" parent="1">
          <mxGeometry x="579" y="1469" width="151" height="91" as="geometry" />
        </mxCell>
        <mxCell id="62HumBrVCURjdnxOm6BM-274" value="" style="html=1;jettySize=18;whiteSpace=wrap;fontSize=13;strokeColor=#3a414a;strokeOpacity=100;strokeWidth=0.8;rounded=1;arcSize=12;edgeStyle=orthogonalEdgeStyle;startArrow=none;endArrow=block;endFill=1;exitX=0.991;exitY=0.5;exitPerimeter=0;entryX=0.009;entryY=0.5;entryPerimeter=0;lucidId=DzD-n7Ik6UJr;" edge="1" parent="1" source="62HumBrVCURjdnxOm6BM-269" target="62HumBrVCURjdnxOm6BM-275">
          <mxGeometry width="100" height="100" relative="1" as="geometry">
            <Array as="points" />
          </mxGeometry>
        </mxCell>
        <mxCell id="62HumBrVCURjdnxOm6BM-290" value="" style="edgeStyle=orthogonalEdgeStyle;rounded=0;orthogonalLoop=1;jettySize=auto;html=1;" edge="1" parent="1" source="62HumBrVCURjdnxOm6BM-275" target="62HumBrVCURjdnxOm6BM-285">
          <mxGeometry relative="1" as="geometry">
            <Array as="points">
              <mxPoint x="900" y="1672" />
              <mxPoint x="900" y="1674" />
            </Array>
          </mxGeometry>
        </mxCell>
        <mxCell id="62HumBrVCURjdnxOm6BM-275" value="User is verified" style="html=1;overflow=block;blockSpacing=1;whiteSpace=wrap;rhombus;fontSize=13.3;fontColor=#3a414a;spacing=3.8;strokeColor=#1071e5;strokeOpacity=100;fillOpacity=100;rounded=1;absoluteArcSize=1;arcSize=9;fillColor=#ffffff;strokeWidth=2.3;lucidId=DzD-SO5HRPDs;" vertex="1" parent="1">
          <mxGeometry x="759" y="1627" width="120" height="90" as="geometry" />
        </mxCell>
        <mxCell id="62HumBrVCURjdnxOm6BM-276" value="" style="html=1;jettySize=18;whiteSpace=wrap;fontSize=13.3;fontColor=#333333;fontStyle=1;align=center;strokeColor=#3a414a;strokeOpacity=100;strokeWidth=0.8;rounded=1;arcSize=12;edgeStyle=orthogonalEdgeStyle;startArrow=none;endArrow=block;endFill=1;exitX=0.991;exitY=0.5;exitPerimeter=0;lucidId=JzD-YJ_QIraR;" edge="1" parent="1" source="62HumBrVCURjdnxOm6BM-269">
          <mxGeometry width="100" height="100" relative="1" as="geometry">
            <Array as="points" />
            <mxPoint x="760" y="1672" as="targetPoint" />
          </mxGeometry>
        </mxCell>
        <mxCell id="62HumBrVCURjdnxOm6BM-277" value="Yes" style="text;html=1;resizable=0;labelBackgroundColor=default;align=center;verticalAlign=middle;fontStyle=1;fontColor=#333333;fontSize=13.3;" vertex="1" parent="62HumBrVCURjdnxOm6BM-276">
          <mxGeometry relative="1" as="geometry" />
        </mxCell>
        <mxCell id="62HumBrVCURjdnxOm6BM-278" value="" style="html=1;jettySize=18;whiteSpace=wrap;fontSize=13;strokeColor=#3a414a;strokeOpacity=100;strokeWidth=0.8;rounded=1;arcSize=12;edgeStyle=orthogonalEdgeStyle;startArrow=none;endArrow=block;endFill=1;exitX=0.5;exitY=0.004;exitPerimeter=0;entryX=0.5;entryY=1.012;entryPerimeter=0;lucidId=tAD-3GIKfAPc;" edge="1" parent="1" source="62HumBrVCURjdnxOm6BM-275" target="62HumBrVCURjdnxOm6BM-279">
          <mxGeometry width="100" height="100" relative="1" as="geometry">
            <Array as="points" />
          </mxGeometry>
        </mxCell>
        <mxCell id="62HumBrVCURjdnxOm6BM-279" value="401: User has already been verified" style="html=1;overflow=block;blockSpacing=1;whiteSpace=wrap;shape=parallelogram;perimeter=parallelogramPerimeter;anchorPointDirection=0;fontSize=13.3;fontColor=#3a414a;spacing=3.8;strokeColor=#1071e5;strokeOpacity=100;fillOpacity=100;rounded=1;absoluteArcSize=1;arcSize=9;fillColor=#FFCCE6;strokeWidth=2.3;lucidId=BAD-1t90olPH;" vertex="1" parent="1">
          <mxGeometry x="759" y="1470" width="120" height="90" as="geometry" />
        </mxCell>
        <mxCell id="62HumBrVCURjdnxOm6BM-295" value="" style="edgeStyle=orthogonalEdgeStyle;rounded=0;orthogonalLoop=1;jettySize=auto;html=1;" edge="1" parent="1" source="62HumBrVCURjdnxOm6BM-280" target="62HumBrVCURjdnxOm6BM-294">
          <mxGeometry relative="1" as="geometry" />
        </mxCell>
        <mxCell id="62HumBrVCURjdnxOm6BM-296" value="No" style="edgeLabel;html=1;align=center;verticalAlign=middle;resizable=0;points=[];" vertex="1" connectable="0" parent="62HumBrVCURjdnxOm6BM-295">
          <mxGeometry x="-0.4731" y="-2" relative="1" as="geometry">
            <mxPoint as="offset" />
          </mxGeometry>
        </mxCell>
        <mxCell id="62HumBrVCURjdnxOm6BM-280" value="token is invalid or token length != 4" style="html=1;overflow=block;blockSpacing=1;whiteSpace=wrap;rhombus;fontSize=13.3;fontColor=#3a414a;spacing=3.8;strokeColor=#1071e5;strokeOpacity=100;fillOpacity=100;rounded=1;absoluteArcSize=1;arcSize=9;fillColor=#ffffff;strokeWidth=2.3;lucidId=jBD-oXYWlk46;" vertex="1" parent="1">
          <mxGeometry x="1125" y="1626" width="135" height="114" as="geometry" />
        </mxCell>
        <mxCell id="62HumBrVCURjdnxOm6BM-281" value="" style="html=1;jettySize=18;whiteSpace=wrap;fontSize=13;strokeColor=#3a414a;strokeOpacity=100;strokeWidth=0.8;rounded=1;arcSize=12;edgeStyle=orthogonalEdgeStyle;startArrow=none;endArrow=block;endFill=1;exitX=0.5;exitY=0.004;exitPerimeter=0;entryX=0.5;entryY=1.012;entryPerimeter=0;lucidId=jBD-otUC0DIU;" edge="1" parent="1" source="62HumBrVCURjdnxOm6BM-280" target="62HumBrVCURjdnxOm6BM-282">
          <mxGeometry width="100" height="100" relative="1" as="geometry">
            <Array as="points" />
          </mxGeometry>
        </mxCell>
        <mxCell id="62HumBrVCURjdnxOm6BM-293" value="Yes" style="edgeLabel;html=1;align=center;verticalAlign=middle;resizable=0;points=[];" vertex="1" connectable="0" parent="62HumBrVCURjdnxOm6BM-281">
          <mxGeometry x="-0.3304" relative="1" as="geometry">
            <mxPoint as="offset" />
          </mxGeometry>
        </mxCell>
        <mxCell id="62HumBrVCURjdnxOm6BM-282" value="401: Invalid token" style="html=1;overflow=block;blockSpacing=1;whiteSpace=wrap;shape=parallelogram;perimeter=parallelogramPerimeter;anchorPointDirection=0;fontSize=13.3;fontColor=#3a414a;spacing=3.8;strokeColor=#1071e5;strokeOpacity=100;fillOpacity=100;rounded=1;absoluteArcSize=1;arcSize=9;fillColor=#FFCCE6;strokeWidth=2.3;lucidId=jBD-HLfc9N7F;" vertex="1" parent="1">
          <mxGeometry x="1125" y="1469" width="145" height="91" as="geometry" />
        </mxCell>
        <mxCell id="62HumBrVCURjdnxOm6BM-283" value="" style="html=1;jettySize=18;whiteSpace=wrap;fontSize=13.3;fontColor=#333333;fontStyle=1;align=center;strokeColor=#3a414a;strokeOpacity=100;strokeWidth=0.8;rounded=1;arcSize=12;edgeStyle=orthogonalEdgeStyle;startArrow=none;endArrow=block;endFill=1;exitX=0.5;exitY=0.004;exitPerimeter=0;lucidId=sBD-eYyEjQWY;" edge="1" parent="1" source="62HumBrVCURjdnxOm6BM-275">
          <mxGeometry width="100" height="100" relative="1" as="geometry">
            <Array as="points" />
            <mxPoint x="819" y="1561" as="targetPoint" />
          </mxGeometry>
        </mxCell>
        <mxCell id="62HumBrVCURjdnxOm6BM-284" value="Yes" style="text;html=1;resizable=0;labelBackgroundColor=default;align=center;verticalAlign=middle;fontStyle=1;fontColor=#333333;fontSize=13.3;" vertex="1" parent="62HumBrVCURjdnxOm6BM-283">
          <mxGeometry relative="1" as="geometry" />
        </mxCell>
        <mxCell id="62HumBrVCURjdnxOm6BM-292" value="" style="edgeStyle=orthogonalEdgeStyle;rounded=0;orthogonalLoop=1;jettySize=auto;html=1;" edge="1" parent="1" source="62HumBrVCURjdnxOm6BM-285" target="62HumBrVCURjdnxOm6BM-280">
          <mxGeometry relative="1" as="geometry" />
        </mxCell>
        <mxCell id="62HumBrVCURjdnxOm6BM-285" value="()verifyToken&lt;br&gt;()checkIfTokenLength == 4" style="html=1;overflow=block;blockSpacing=1;whiteSpace=wrap;fontSize=13.3;align=center;spacing=9;strokeColor=#1071e5;strokeOpacity=100;fillOpacity=100;rounded=1;absoluteArcSize=1;arcSize=9;fillColor=#ffffff;strokeWidth=2.3;lucidId=qCD-ik-hIM0-;" vertex="1" parent="1">
          <mxGeometry x="942" y="1629" width="138" height="91" as="geometry" />
        </mxCell>
        <mxCell id="62HumBrVCURjdnxOm6BM-294" value="() set user verified&lt;br&gt;()set token to null&lt;br&gt;201:Account verified" style="shape=parallelogram;perimeter=parallelogramPerimeter;whiteSpace=wrap;html=1;fixedSize=1;fontSize=13.3;fillColor=#ffffff;strokeColor=#1071e5;fontColor=#3a414a;spacing=3.8;rounded=1;arcSize=9;strokeWidth=2.3;" vertex="1" parent="1">
          <mxGeometry x="1347.5" y="1640" width="152.5" height="80" as="geometry" />
        </mxCell>
        <mxCell id="62HumBrVCURjdnxOm6BM-297" value="" style="shape=waypoint;sketch=0;size=6;pointerEvents=1;points=[];fillColor=#ffffff;resizable=0;rotatable=0;perimeter=centerPerimeter;snapToPoint=1;fontSize=13.3;strokeColor=#1071e5;fontColor=#3a414a;spacing=3.8;rounded=1;arcSize=9;strokeWidth=2.3;" vertex="1" parent="1">
          <mxGeometry x="340" y="897" width="20" height="20" as="geometry" />
        </mxCell>
        <mxCell id="62HumBrVCURjdnxOm6BM-307" value="" style="edgeStyle=orthogonalEdgeStyle;rounded=0;orthogonalLoop=1;jettySize=auto;html=1;" edge="1" parent="1" source="62HumBrVCURjdnxOm6BM-304" target="62HumBrVCURjdnxOm6BM-306">
          <mxGeometry relative="1" as="geometry" />
        </mxCell>
        <mxCell id="62HumBrVCURjdnxOm6BM-304" value="/sendForgotPassord&lt;br&gt;Token&lt;br&gt;*email" style="html=1;overflow=block;blockSpacing=1;whiteSpace=wrap;fontSize=13.3;fontColor=#3a414a;spacing=3.8;strokeColor=#3a414a;strokeOpacity=100;fillOpacity=100;rounded=1;absoluteArcSize=1;arcSize=9;fillColor=#67AB9F;strokeWidth=0.8;lucidId=DrD-D4KeFBbC;" vertex="1" parent="1">
          <mxGeometry x="375" y="1960" width="136" height="60" as="geometry" />
        </mxCell>
        <mxCell id="62HumBrVCURjdnxOm6BM-313" value="" style="edgeStyle=orthogonalEdgeStyle;rounded=0;orthogonalLoop=1;jettySize=auto;html=1;" edge="1" parent="1" source="62HumBrVCURjdnxOm6BM-306" target="62HumBrVCURjdnxOm6BM-312">
          <mxGeometry relative="1" as="geometry" />
        </mxCell>
        <mxCell id="62HumBrVCURjdnxOm6BM-314" value="No" style="edgeLabel;html=1;align=center;verticalAlign=middle;resizable=0;points=[];" vertex="1" connectable="0" parent="62HumBrVCURjdnxOm6BM-313">
          <mxGeometry x="0.0212" y="-3" relative="1" as="geometry">
            <mxPoint as="offset" />
          </mxGeometry>
        </mxCell>
        <mxCell id="62HumBrVCURjdnxOm6BM-306" value="Email exists" style="html=1;overflow=block;blockSpacing=1;whiteSpace=wrap;rhombus;fontSize=13.3;fontColor=#3a414a;spacing=3.8;strokeColor=#1071e5;strokeOpacity=100;fillOpacity=100;rounded=1;absoluteArcSize=1;arcSize=9;fillColor=#ffffff;strokeWidth=2.3;lucidId=DrD-Ha23VHyx;" vertex="1" parent="1">
          <mxGeometry x="639" y="1945" width="120" height="90" as="geometry" />
        </mxCell>
        <mxCell id="62HumBrVCURjdnxOm6BM-312" value=" 401:User does not exists" style="html=1;overflow=block;blockSpacing=1;whiteSpace=wrap;shape=parallelogram;perimeter=parallelogramPerimeter;anchorPointDirection=0;fontSize=13.3;fontColor=#3a414a;spacing=3.8;strokeColor=#1071e5;strokeOpacity=100;fillOpacity=100;rounded=1;absoluteArcSize=1;arcSize=9;fillColor=#FFCCE6;strokeWidth=2.3;lucidId=DrD-UljO6VfJ;" vertex="1" parent="1">
          <mxGeometry x="623.5" y="1800" width="151" height="91" as="geometry" />
        </mxCell>
        <mxCell id="62HumBrVCURjdnxOm6BM-316" value="" style="edgeStyle=orthogonalEdgeStyle;rounded=0;orthogonalLoop=1;jettySize=auto;html=1;" edge="1" parent="1" source="62HumBrVCURjdnxOm6BM-315" target="62HumBrVCURjdnxOm6BM-306">
          <mxGeometry relative="1" as="geometry" />
        </mxCell>
        <mxCell id="62HumBrVCURjdnxOm6BM-318" value="" style="edgeStyle=orthogonalEdgeStyle;rounded=0;orthogonalLoop=1;jettySize=auto;html=1;" edge="1" parent="1" source="62HumBrVCURjdnxOm6BM-315" target="62HumBrVCURjdnxOm6BM-317">
          <mxGeometry relative="1" as="geometry" />
        </mxCell>
        <mxCell id="62HumBrVCURjdnxOm6BM-315" value="User is verified" style="html=1;overflow=block;blockSpacing=1;whiteSpace=wrap;rhombus;fontSize=13.3;fontColor=#3a414a;spacing=3.8;strokeColor=#1071e5;strokeOpacity=100;fillOpacity=100;rounded=1;absoluteArcSize=1;arcSize=9;fillColor=#ffffff;strokeWidth=2.3;lucidId=DzD-SO5HRPDs;" vertex="1" parent="1">
          <mxGeometry x="822" y="1945" width="120" height="90" as="geometry" />
        </mxCell>
        <mxCell id="62HumBrVCURjdnxOm6BM-317" value="401: User has already been verified" style="html=1;overflow=block;blockSpacing=1;whiteSpace=wrap;shape=parallelogram;perimeter=parallelogramPerimeter;anchorPointDirection=0;fontSize=13.3;fontColor=#3a414a;spacing=3.8;strokeColor=#1071e5;strokeOpacity=100;fillOpacity=100;rounded=1;absoluteArcSize=1;arcSize=9;fillColor=#FFCCE6;strokeWidth=2.3;lucidId=BAD-1t90olPH;" vertex="1" parent="1">
          <mxGeometry x="826" y="1800" width="120" height="90" as="geometry" />
        </mxCell>
      </root>
    </mxGraphModel>
  </diagram>
</mxfile>
